<?xml version="1.0" encoding="UTF-8" standalone="no"?>
<svg
   xmlns:dc="http://purl.org/dc/elements/1.1/"
   xmlns:cc="http://creativecommons.org/ns#"
   xmlns:rdf="http://www.w3.org/1999/02/22-rdf-syntax-ns#"
   xmlns:svg="http://www.w3.org/2000/svg"
   xmlns="http://www.w3.org/2000/svg"
   xmlns:sodipodi="http://sodipodi.sourceforge.net/DTD/sodipodi-0.dtd"
   xmlns:inkscape="http://www.inkscape.org/namespaces/inkscape"
   version="1.1"
   id="Layer_1"
   x="0px"
   y="0px"
   viewBox="0 0 361.39999 718"
   xml:space="preserve"
   sodipodi:docname="iphone-x.svg"
   inkscape:version="1.0 (4035a4fb49, 2020-05-01)"
   width="361.39999"
   height="718"><metadata
   id="metadata21"><rdf:RDF><cc:Work
       rdf:about=""><dc:format>image/svg+xml</dc:format><dc:type
         rdf:resource="http://purl.org/dc/dcmitype/StillImage" /><dc:title></dc:title></cc:Work></rdf:RDF></metadata><defs
   id="defs19">
	
	
	
	
	
	
	
	
</defs><sodipodi:namedview
   inkscape:document-rotation="0"
   pagecolor="#ffffff"
   bordercolor="#666666"
   borderopacity="1"
   objecttolerance="10"
   gridtolerance="10"
   guidetolerance="10"
   inkscape:pageopacity="0"
   inkscape:pageshadow="2"
   inkscape:window-width="1920"
   inkscape:window-height="1027"
   id="namedview17"
   showgrid="false"
   inkscape:zoom="0.73443458"
   inkscape:cx="87.074692"
   inkscape:cy="455.51865"
   inkscape:window-x="-8"
   inkscape:window-y="-8"
   inkscape:window-maximized="1"
   inkscape:current-layer="Layer_1"
   fit-margin-top="0"
   fit-margin-left="0"
   fit-margin-right="0"
   fit-margin-bottom="0"><inkscape:grid
     type="xygrid"
     id="grid893"
     originx="-58.299999"
     originy="-55.5" /></sodipodi:namedview>
<style
   type="text/css"
   id="style2">
	.st0{fill:none;stroke:#000000;stroke-miterlimit:10;}
</style>
<rect
   y="1.8685081"
   x="-0.85467529"
   height="717.90656"
   width="361.16956"
   id="rect873-7"
   style="fill:#0e1526;fill-opacity:1;stroke-width:1.38007;stroke-opacity:0" /><path
   id="XMLID_29_-4"
   style="fill:#333333;stroke:none;stroke-width:0.99994;stroke-miterlimit:10"
   d="M 56.29961,0 C 27.499608,0 4.2,23.299608 4.2,52.09961 V 665.90039 C 4.2,694.70039 27.499608,718 56.29961,718 h 248.80078 c 28.8,0 52.09961,-23.29961 52.09961,-52.09961 V 52.09961 C 357.2,23.299608 333.90039,0 305.10039,0 Z m 0.7793,18.099609 h 28.72461 c 6.08393,0 8.27684,0.0012 8.67578,7.701172 0.39895,8 5.88511,12.899219 13.26562,15.199219 2.49341,0.8 5.28758,0.900391 7.98047,0.900391 h 5.38281 120.38477 5.38476 c 2.69289,0 5.48705,-0.100391 7.98047,-0.900391 7.3805,-2.3 12.96446,-7.199219 13.26368,-15.199219 0.39893,-7.7 2.59379,-7.701172 8.67773,-7.701172 h 28.62305 c 17.4539,0 31.51757,14.199609 31.51757,31.599611 V 663 c 0,17.5 -14.1634,31.59961 -31.51757,31.59961 H 57.07891 C 39.625004,694.59961 25.563281,680.4 25.563281,663 V 49.69922 c 0,-17.500002 14.161459,-31.599611 31.515629,-31.599611 z"
   sodipodi:nodetypes="sssssssssssccsccsccsssssssss" /><polyline
   points="62.7,149.1 58.8,149.1 58.8,176.3 62.7,176.3  "
   class="st0"
   id="XMLID_20_"
   style="fill:#ffffff;stroke:none;stroke-opacity:1"
   transform="translate(-58.3,-55.5)" /><polyline
   points="415.3,301.2 419.2,301.2 419.2,217.7 415.3,217.7  "
   class="st0"
   id="XMLID_23_"
   style="fill:#ffffff;stroke:none"
   transform="translate(-58.3,-55.5)" /><g
   id="XMLID_24_"
   style="fill:#ffffff;stroke:none;stroke-opacity:1"
   transform="translate(-58.3,-55.5)">
		<polyline
   points="62.7,201.4 58.8,201.4 58.8,252.2 62.7,252.2   "
   class="st0"
   id="XMLID_26_"
   style="fill:#ffffff;stroke:none;stroke-opacity:1" />
		<polyline
   points="62.7,266.7 58.8,266.7 58.8,317.5 62.7,317.5   "
   class="st0"
   id="XMLID_25_"
   style="fill:#ffffff;stroke:none;stroke-opacity:1" />
	</g><g
   id="XMLID_45_"
   style="fill:#ffffff"
   transform="translate(-58.3,-55.5)">
		<path
   d="m 259.9,82.5 h -39 c -1.7,0 -3,-1 -3,-2.5 0,-1.5 1.3,-2.5 3,-2.5 h 39 c 1.7,0 3,1 3,2.5 0,1.5 -1.4,2.5 -3,2.5 z"
   class="st0"
   id="XMLID_47_"
   style="fill:#ffffff;stroke:none" />
	</g><circle
   r="4.4000001"
   cy="23.400002"
   cx="217.7"
   class="st0"
   id="XMLID_49_"
   style="fill:#ffffff;stroke:none" />
<g
   id="g933"><g
     id="g888"><g
       style="font-style:normal;font-weight:normal;font-size:66.1875px;line-height:1.25;font-family:sans-serif;fill:#ffffff;fill-opacity:1;stroke:none;stroke-width:0.689452"
       id="text848-2"
       aria-label="EY-dev"><path
         id="path866"
         style="font-style:normal;font-variant:normal;font-weight:normal;font-stretch:normal;font-size:66.1875px;font-family:Century;-inkscape-font-specification:Century;fill:#ffffff;stroke-width:0.689452"
         d="m 67.586594,304.83197 h 37.876826 l 0.90491,16.12674 h -2.16531 q -1.29273,-7.62708 -4.1044,-10.66498 -2.77936,-3.0379 -7.271578,-3.0379 h -9.372254 q -1.131134,0 -1.71286,0.61404 -0.581726,0.61405 -0.581726,1.87445 v 17.03165 h 4.104401 q 3.296447,0 5.332489,-2.35922 2.068359,-2.35922 2.22995,-7.23926 h 2.22995 v 22.13791 h -2.22995 q -0.161591,-5.49408 -2.262268,-7.8533 -2.06836,-2.39154 -5.655671,-2.39154 h -3.748901 v 19.00305 q 0,1.03418 0.67868,1.58359 0.710999,0.5494 2.326905,0.5494 h 7.400848 q 12.054655,0 13.896785,-15.38342 h 2.32691 l -0.80795,17.80728 H 67.586594 v -2.42386 h 3.264129 q 1.906769,0 2.682404,-0.64636 0.775635,-0.67868 0.775635,-1.93909 v -37.87683 q 0,-1.2604 -0.678681,-1.87445 -0.67868,-0.61404 -2.132995,-0.61404 h -3.910492 z" /><path
         id="path868"
         style="font-style:normal;font-variant:normal;font-weight:normal;font-stretch:normal;font-size:66.1875px;font-family:Century;-inkscape-font-specification:Century;fill:#ffffff;stroke-width:0.689452"
         d="m 110.69896,304.83197 h 20.94214 v 2.42386 h -2.32691 q -2.90863,0 -3.78122,0.45245 -0.87258,0.45246 -0.87258,1.26041 0,0.84027 0.45245,1.51895 l 12.15161,18.84146 8.72589,-16.0621 q 0.58173,-1.0665 0.58173,-2.32691 0,-1.68054 -1.09882,-2.6824 -1.09881,-1.00186 -3.13486,-1.00186 h -2.22995 v -2.42386 h 18.22742 v 2.42386 q -3.13486,0 -4.94467,1.09881 -1.80981,1.09882 -3.49036,4.13672 l -11.02047,20.19883 v 15.12487 q 0,1.19577 0.67868,1.71286 0.93722,0.67868 2.77935,0.67868 h 4.1044 v 2.42386 h -21.944 v -2.42386 h 4.33063 q 1.74518,0 2.52081,-0.61404 0.77564,-0.64636 0.77564,-1.7775 v -14.70474 l -14.83402,-23.10745 q -0.96954,-1.48663 -2.26226,-2.06836 -1.29273,-0.61404 -4.33063,-0.67868 z" /><path
         id="path870"
         style="font-size:66.1875px;fill:#ffffff;stroke-width:0.689452"
         d="m 182.86531,334.5 h -20.1665 v -5.84958 h 20.1665 z" /><path
         id="path872"
         style="font-style:normal;font-variant:normal;font-weight:normal;font-stretch:normal;font-size:66.1875px;font-family:'Century Schoolbook';-inkscape-font-specification:'Century Schoolbook';fill:#ffffff;stroke-width:0.689452"
         d="m 207.20085,304.83197 11.82843,-0.54941 v 41.43183 q 0,2.42385 0.90491,3.45803 0.93722,1.03418 2.77936,1.03418 h 2.10067 v 2.42386 h -10.34179 l -0.77564,-6.17276 q -1.84213,3.29645 -4.33062,4.97699 -2.45618,1.64823 -5.5264,1.64823 -5.1709,0 -8.82285,-4.33063 -3.61963,-4.33063 -3.61963,-11.44061 0,-7.69172 4.65381,-12.28089 3.65195,-3.58731 8.40271,-3.58731 2.90863,0 5.20322,1.45432 2.3269,1.45431 4.03976,4.39526 v -17.09628 q 0,-1.35736 -1.0665,-2.133 -1.03417,-0.80795 -3.26412,-0.80795 h -2.16532 z m -1.87445,19.29392 q -3.49036,0 -5.55872,2.87631 -2.03604,2.87631 -2.03604,9.69543 0,7.40085 2.10068,10.43875 2.10068,3.00559 5.39713,3.00559 3.52267,0 6.01117,-3.36109 2.52081,-3.3934 2.52081,-9.88934 0,-6.14044 -2.6824,-9.66312 -2.32691,-3.10253 -5.75263,-3.10253 z" /><path
         id="path874"
         style="font-style:normal;font-variant:normal;font-weight:normal;font-stretch:normal;font-size:66.1875px;font-family:'Century Schoolbook';-inkscape-font-specification:'Century Schoolbook';fill:#ffffff;stroke-width:0.689452"
         d="M 256.45366,337.69949 H 234.7682 q 0.16159,6.91608 2.58545,9.76007 2.77936,3.1995 7.07767,3.1995 6.33435,0 10.18021,-7.20694 l 2.10067,0.90491 q -4.71844,9.17834 -13.63824,9.17834 -6.07581,0 -10.24484,-4.39526 -4.13672,-4.39527 -4.13672,-11.24671 0,-7.36853 4.07208,-11.89306 4.1044,-4.55686 10.08325,-4.55686 4.39527,0 7.59476,2.26227 3.19949,2.26227 4.8154,6.49594 1.13113,2.97327 1.19577,7.4978 z m -21.68546,-2.29458 h 13.12116 q 1.16345,0 1.80981,-0.77564 0.64637,-0.80795 0.64637,-2.71472 0,-3.55499 -2.22995,-6.04349 -2.19764,-2.48849 -5.20322,-2.48849 -3.36109,0 -5.72031,3.00558 -2.3269,3.00559 -2.42386,9.01676 z" /><path
         id="path876"
         style="font-style:normal;font-variant:normal;font-weight:normal;font-stretch:normal;font-size:66.1875px;font-family:'Century Schoolbook';-inkscape-font-specification:'Century Schoolbook';fill:#ffffff;stroke-width:0.689452"
         d="m 259.81474,322.34839 h 14.89865 v 2.19763 q -2.97326,0.0646 -3.81353,0.54941 -0.80796,0.45245 -0.80796,1.32504 0,0.711 0.32318,1.422 l 8.0149,17.87192 7.33621,-17.32251 q 0.16159,-0.45246 0.16159,-0.90491 0,-2.35922 -4.65381,-2.94095 v -2.19763 h 12.53943 v 2.19763 q -1.90677,0.19391 -3.0379,1.03418 -1.13114,0.84027 -1.74518,2.26227 l -11.11743,25.6929 h -1.74518 l -11.89307,-26.4039 q -0.64636,-1.422 -1.58358,-1.97141 -0.90491,-0.58172 -2.87632,-0.61404 z" /></g><rect
       y="118.13023"
       x="94.518356"
       height="68.94532"
       width="172.3633"
       id="rect854-92"
       style="fill:#ffffff;stroke-width:1.74365;stroke-opacity:0" /><rect
       style="fill:#ff2a2a;stroke-width:1.74366;stroke-opacity:0"
       id="rect854-9-8"
       width="172.3633"
       height="68.94532"
       x="94.518356"
       y="193.97005" /></g><g
     aria-label="mobile"
     id="text901"
     style="font-style:normal;font-weight:normal;font-size:74.6667px;line-height:1.25;font-family:sans-serif;letter-spacing:2px;fill:#000000;fill-opacity:1;stroke:none"><path
       d="m 64.921304,601.41293 9.770838,-0.61979 q 0.802083,3.82812 1.057292,7.29167 2.770835,-4.01042 5.541669,-5.65105 2.770835,-1.64062 6.088545,-1.64062 3.53646,0 5.833336,1.85937 2.296876,1.85938 3.53646,6.05209 2.442709,-3.97396 5.432296,-5.94271 2.98958,-1.96875 6.52604,-1.96875 4.66667,0 7.00001,2.77083 2.98958,3.64583 2.98958,9.40625 v 16.95314 q 0,1.53125 0.76563,2.07812 1.02083,0.83855 3.02604,0.83855 h 1.71354 v 2.73437 H 107.0307 v -2.73437 h 1.71354 q 2.1875,0 3.0625,-0.72917 0.875,-0.72917 0.875,-2.1875 v -16.95314 q 0,-3.79166 -1.85937,-5.86979 -1.85938,-2.07813 -4.88542,-2.07813 -2.29688,0 -4.15625,1.23959 -1.85938,1.20312 -2.916672,3.46354 -1.567709,3.24479 -1.567709,5.50521 v 14.69272 q 0,1.49479 0.802084,2.22396 0.802084,0.69271 2.479167,0.69271 h 2.33334 v 2.73437 H 85.520272 v -2.73437 h 1.968751 q 1.859376,0 2.770834,-0.72917 0.911459,-0.72917 0.911459,-1.85938 v -15.75 q 0,-4.9948 -1.786459,-7.25522 -1.750001,-2.26041 -4.739586,-2.26041 -3.864585,0 -5.942711,2.625 -2.953126,3.71875 -2.953126,8.67708 v 13.63543 q 0,1.56771 0.692709,2.15104 0.984375,0.76563 3.062501,0.76563 h 1.750001 v 2.73437 H 64.046303 v -2.73437 h 2.588543 q 1.458334,0 2.22396,-0.72917 0.802083,-0.72917 0.802083,-1.85938 v -22.38542 q 0,-1.85938 -0.947917,-2.77084 -0.947917,-0.91146 -3.791668,-1.16667 z"
       style="font-style:normal;font-variant:normal;font-weight:normal;font-stretch:normal;font-size:74.6667px;font-family:Century;-inkscape-font-specification:Century;fill:#ffffff"
       id="path903" /><path
       d="m 147.27551,600.39209 q 6.89062,0 11.55729,4.9948 4.70313,4.95833 4.70313,13.08855 0,5.61458 -2.11458,9.58854 -2.07813,3.9375 -5.97917,6.23438 -3.86459,2.29688 -8.34897,2.29688 -6.63542,0 -11.26563,-5.03126 -4.59375,-5.03125 -4.59375,-13.05209 0,-8.05729 4.63021,-13.08854 4.63021,-5.03126 11.41147,-5.03126 z m 0,2.58855 q -4.08334,0 -6.70834,3.71875 -2.625,3.68229 -2.625,11.66667 0,8.13021 2.58854,11.88542 2.625,3.75521 6.7448,3.75521 4.26562,0 6.89062,-3.75521 2.66146,-3.75521 2.66146,-12.28646 0,-7.91146 -2.625,-11.44792 -2.58854,-3.53646 -6.92708,-3.53646 z"
       style="font-style:normal;font-variant:normal;font-weight:normal;font-stretch:normal;font-size:74.6667px;font-family:Century;-inkscape-font-specification:Century;fill:#ffffff"
       id="path905" /><path
       d="m 181.06719,581.03271 v 25.37501 q 2.15104,-3.02604 4.77604,-4.52083 2.625,-1.4948 5.72396,-1.4948 6.01563,0 10.17188,4.70313 4.15625,4.70313 4.15625,12.39584 0,8.34896 -4.48437,13.48959 -4.44792,5.10417 -11.04688,5.10417 -3.13542,0 -5.68751,-1.23959 -2.55208,-1.23958 -5.25,-4.19271 -2.07812,3.31771 -4.01042,5.4323 l -1.45833,-0.51042 q 1.02083,-4.19271 1.02083,-8.75 V 588.215 q 0,-1.78645 -1.27604,-2.80729 -1.23958,-1.02083 -3.53646,-1.02083 h -1.53125 v -2.73438 z m 9.1875,22.56772 q -4.11979,0 -6.70834,3.60937 -2.58854,3.57292 -2.58854,11.84897 0,7.875 2.55209,11.26563 2.55208,3.39063 6.67187,3.39063 3.71876,0 5.97917,-3.35417 2.84376,-4.22917 2.84376,-12.06772 0,-7.72917 -2.51563,-11.19271 -2.47917,-3.5 -6.23438,-3.5 z"
       style="font-style:normal;font-variant:normal;font-weight:normal;font-stretch:normal;font-size:74.6667px;font-family:Century;-inkscape-font-specification:Century;fill:#ff2a2a;fill-opacity:1"
       id="path907" /><path
       d="m 222.84324,581.03271 q 1.64063,0 2.88021,1.23958 1.23959,1.23959 1.23959,2.91667 0,1.64063 -1.20313,2.84375 -1.20312,1.20313 -2.88021,1.20313 -1.67708,0 -2.91667,-1.20313 -1.20312,-1.23958 -1.20312,-2.88021 0,-1.64062 1.23958,-2.88021 1.23959,-1.23958 2.84375,-1.23958 z m -9.44271,20.38022 13.56251,-0.40104 v 29.38543 q 0,1.20312 0.58333,1.71354 0.83854,0.72917 2.11458,0.72917 h 3.86459 v 2.73437 H 214.1297 v -2.73437 h 3.60937 q 1.60417,0 2.33334,-0.76563 0.76562,-0.80208 0.76562,-2.29688 V 608.2671 q 0,-2.04167 -1.16666,-3.0625 -1.16667,-1.0573 -3.46355,-1.0573 h -2.80729 z"
       style="font-style:normal;font-variant:normal;font-weight:normal;font-stretch:normal;font-size:74.6667px;font-family:Century;-inkscape-font-specification:Century;fill:#ffffff"
       id="path909" /><path
       d="m 252.40577,581.03271 v 49.51044 q 0,1.02083 0.61979,1.56771 0.91146,0.72917 2.22396,0.72917 h 3.60937 v 2.73437 h -19.32292 v -2.73437 h 3.42708 q 1.67709,0 2.47917,-0.80209 0.83854,-0.80208 0.83854,-2.26042 V 588.215 q 0,-1.82291 -0.98437,-2.66146 -1.34896,-1.16666 -3.31771,-1.16666 h -3.0625 v -2.73438 z"
       style="font-style:normal;font-variant:normal;font-weight:normal;font-stretch:normal;font-size:74.6667px;font-family:Century;-inkscape-font-specification:Century;fill:#ffffff"
       id="path911" /><path
       d="m 297.06203,618.73064 h -24.46355 q 0.18229,7.80209 2.91666,11.01043 3.13542,3.60937 7.98438,3.60937 7.14584,0 11.48438,-8.13021 l 2.3698,1.02083 q -5.32292,10.35418 -15.38543,10.35418 -6.85417,0 -11.55729,-4.95834 -4.66667,-4.95834 -4.66667,-12.68751 0,-8.3125 4.59375,-13.41667 4.63021,-5.14063 11.375,-5.14063 4.95834,0 8.56772,2.55209 3.60937,2.55208 5.43229,7.32813 1.27604,3.35416 1.34896,8.45833 z m -24.46355,-2.58854 h 14.80209 q 1.3125,0 2.04166,-0.875 0.72917,-0.91146 0.72917,-3.0625 0,-4.01042 -2.51563,-6.81771 -2.47916,-2.8073 -5.86979,-2.8073 -3.79167,0 -6.45313,3.39063 -2.625,3.39063 -2.73437,10.17188 z"
       style="font-style:normal;font-variant:normal;font-weight:normal;font-stretch:normal;font-size:74.6667px;font-family:Century;-inkscape-font-specification:Century;fill:#ffffff"
       id="path913" /></g></g></svg>
