<?xml version="1.0" encoding="UTF-8" standalone="no"?>
<svg
   xmlns:dc="http://purl.org/dc/elements/1.1/"
   xmlns:cc="http://creativecommons.org/ns#"
   xmlns:rdf="http://www.w3.org/1999/02/22-rdf-syntax-ns#"
   xmlns:svg="http://www.w3.org/2000/svg"
   xmlns="http://www.w3.org/2000/svg"
   xmlns:sodipodi="http://sodipodi.sourceforge.net/DTD/sodipodi-0.dtd"
   xmlns:inkscape="http://www.inkscape.org/namespaces/inkscape"
   width="3011.7058"
   height="512"
   viewBox="0 0 3011.7059 512.00004"
   version="1.1"
   id="svg8"
   inkscape:version="1.0 (4035a4fb49, 2020-05-01)"
   sodipodi:docname="logo_line.svg">
  <defs
     id="defs2">
    <pattern
       y="0"
       x="0"
       height="6"
       width="6"
       patternUnits="userSpaceOnUse"
       id="EMFhbasepattern" />
  </defs>
  <sodipodi:namedview
     fit-margin-bottom="0"
     fit-margin-right="0"
     fit-margin-left="0"
     fit-margin-top="0"
     units="px"
     id="base"
     pagecolor="#ffffff"
     bordercolor="#666666"
     borderopacity="1.0"
     inkscape:pageopacity="0.0"
     inkscape:pageshadow="2"
     inkscape:zoom="0.35"
     inkscape:cx="1333.1679"
     inkscape:cy="496.0363"
     inkscape:document-units="px"
     inkscape:current-layer="layer1"
     inkscape:document-rotation="0"
     showgrid="false"
     inkscape:window-width="1920"
     inkscape:window-height="1027"
     inkscape:window-x="-8"
     inkscape:window-y="-8"
     inkscape:window-maximized="1" />
  <metadata
     id="metadata5">
    <rdf:RDF>
      <cc:Work
         rdf:about="">
        <dc:format>image/svg+xml</dc:format>
        <dc:type
           rdf:resource="http://purl.org/dc/dcmitype/StillImage" />
        <dc:title></dc:title>
      </cc:Work>
    </rdf:RDF>
  </metadata>
  <g
     inkscape:label="Слой 1"
     inkscape:groupmode="layer"
     id="layer1"
     transform="translate(699.73982,193.98093)">
    <g
       style="font-style:normal;font-weight:normal;font-size:688.042px;line-height:1.25;font-family:sans-serif;fill:#ffffff;fill-opacity:1;stroke:none;stroke-width:7.16709"
       id="text848"
       aria-label="EY-dev">
      <path
         id="path840"
         style="font-style:normal;font-variant:normal;font-weight:normal;font-stretch:normal;font-size:688.042px;font-family:Century;-inkscape-font-specification:Century;fill:#ffffff;stroke-width:7.16709"
         d="M -39.739882,-188.26964 H 354.0029 l 9.40682,167.64304 h -22.50918 q -13.43832,-79.286089 -42.66667,-110.86614 -28.89239,-31.58005 -75.59055,-31.58005 H 125.2155 q -11.75853,0 -17.80578,6.3832 -6.04724,6.3832 -6.04724,19.48556 V 39.84584 h 42.66667 q 34.26771,0 55.43307,-24.524934 21.50131,-24.5249341 23.1811,-75.254593 h 23.1811 V 170.19755 h -23.1811 Q 220.96353,113.08469 199.12626,88.559751 177.62495,63.698859 140.33361,63.698859 H 101.36248 V 261.24217 q 0,10.75065 7.05512,16.46194 7.39107,5.71128 24.18897,5.71128 h 76.93439 q 125.31233,0 144.46194,-159.91601 h 24.18897 l -8.39895,185.11286 H -39.739882 v -25.19685 h 33.9317579 q 19.8215221,0 27.8845141,-6.71916 8.062992,-7.05511 8.062992,-20.15748 v -393.74278 q 0,-13.10236 -7.055118,-19.48556 -7.055118,-6.3832 -22.17322799,-6.3832 H -39.739882 Z" />
      <path
         id="path842"
         style="font-style:normal;font-variant:normal;font-weight:normal;font-stretch:normal;font-size:688.042px;font-family:Century;-inkscape-font-specification:Century;fill:#ffffff;stroke-width:7.16709"
         d="m 408.42808,-188.26964 h 217.70079 v 25.19685 h -24.18898 q -30.23622,0 -39.30708,4.70341 -9.07087,4.70341 -9.07087,13.10236 0,8.73491 4.70341,15.79003 L 684.58556,66.386523 775.29422,-100.58461 q 6.04725,-11.08661 6.04725,-24.18897 0,-17.46982 -11.42257,-27.88452 -11.42258,-10.41469 -32.58793,-10.41469 h -23.1811 v -25.19685 h 189.48031 v 25.19685 q -32.58793,0 -51.40157,11.42257 -18.81365,11.42257 -36.28347,43.00262 L 701.38346,101.32616 V 258.5545 q 0,12.43045 7.05512,17.80578 9.74278,7.05511 28.89239,7.05511 h 42.66667 v 25.19685 H 551.88215 v -25.19685 h 45.01837 q 18.14174,0 26.20473,-6.3832 8.06299,-6.71916 8.06299,-18.47769 V 105.69361 L 476.96352,-134.51636 q -10.07874,-15.45407 -23.51706,-21.50132 -13.43832,-6.3832 -45.01838,-7.05511 z" />
      <path
         id="path844"
         style="font-size:688.042px;fill:#ffffff;stroke-width:7.16709"
         d="M 1158.6223,120.1398 H 948.98451 V 59.331405 h 209.63779 z" />
      <path
         id="path846"
         style="font-style:normal;font-variant:normal;font-weight:normal;font-stretch:normal;font-size:688.042px;font-family:'Century Schoolbook';-inkscape-font-specification:'Century Schoolbook';fill:#ffffff;stroke-width:7.16709"
         d="m 1411.5987,-188.26964 122.9607,-5.71129 v 430.69816 q 0,25.19685 9.4068,35.94751 9.7428,10.75065 28.8924,10.75065 h 21.8372 v 25.19685 h -107.5065 l -8.063,-64.16798 q -19.1496,34.26772 -45.0184,51.73754 -25.5328,17.13386 -57.4488,17.13386 -53.7533,0 -91.7165,-45.01838 -37.6273,-45.01837 -37.6273,-118.92913 0,-79.958005 48.3779,-127.664042 37.9633,-37.291338 87.3491,-37.291338 30.2362,0 54.0892,15.11810997 24.189,15.11811003 41.9948,45.69028903 V -132.50062 q 0,-14.11023 -11.0866,-22.17322 -10.7507,-8.39895 -33.9318,-8.39895 h -22.5092 z m -19.4855,200.566924 q -36.2835,0 -57.7848,29.900262 -21.1654,29.900263 -21.1654,100.787404 0,76.93438 21.8373,108.51443 21.8373,31.2441 56.105,31.2441 36.6194,0 62.4882,-34.93964 26.2047,-35.27559 26.2047,-102.80314 0,-63.832025 -27.8845,-100.451447 -24.189,-32.251969 -59.8005,-32.251969 z" />
      <path
         id="path848"
         style="font-style:normal;font-variant:normal;font-weight:normal;font-stretch:normal;font-size:688.042px;font-family:'Century Schoolbook';-inkscape-font-specification:'Century Schoolbook';fill:#ffffff;stroke-width:7.16709"
         d="m 1923.5987,153.39965 h -225.4279 q 1.6798,71.89501 26.8767,101.45931 28.8924,33.25985 73.5748,33.25985 65.8478,0 105.8268,-74.91864 l 21.8372,9.40682 q -49.0498,95.41208 -141.7742,95.41208 -63.1602,0 -106.4987,-45.69029 -43.0027,-45.69029 -43.0027,-116.91339 0,-76.598421 42.3307,-123.632542 42.6667,-47.370078 104.8189,-47.370078 45.6903,0 78.9502,23.5170601 33.2598,23.5170599 50.0577,67.5275589 11.7586,30.908141 12.4305,77.942261 z m -225.4279,-23.85302 h 136.399 q 12.0945,0 18.8136,-8.06299 6.7192,-8.39895 6.7192,-28.220477 0,-36.95538 -23.1811,-62.824147 -22.8451,-25.868766 -54.0892,-25.868766 -34.9397,0 -59.4646,31.244094 -24.189,31.244095 -25.1969,93.732286 z" />
      <path
         id="path850"
         style="font-style:normal;font-variant:normal;font-weight:normal;font-stretch:normal;font-size:688.042px;font-family:'Century Schoolbook';-inkscape-font-specification:'Century Schoolbook';fill:#ffffff;stroke-width:7.16709"
         d="m 1958.5383,-6.1804061 h 154.8766 V 16.664738 q -30.9081,0.671916 -39.643,5.711286 -8.399,4.703412 -8.399,13.774278 0,7.391076 3.3596,14.782153 l 83.3176,185.784775 76.2625,-180.073489 q 1.6798,-4.703412 1.6798,-9.406824 0,-24.524935 -48.378,-30.572179 V -6.1804061 h 130.3517 V 16.664738 q -19.8215,2.015748 -31.58,10.750656 -11.7586,8.734908 -18.1418,23.517061 L 2146.6748,318.01907 H 2128.533 L 2004.9005,43.541378 q -6.7192,-14.782152 -16.4619,-20.493438 -9.4069,-6.047244 -29.9003,-6.383202 z" />
    </g>
    <g
       id="g1041"
       transform="matrix(11.527559,0,0,11.51856,-1175.5397,-557.9428)">
      <rect
         y="31.597862"
         x="41.27499"
         height="21.166668"
         width="52.916668"
         id="rect854"
         style="fill:#ffffff;stroke-width:0.53531;stroke-opacity:0" />
      <rect
         style="fill:#ff2a2a;stroke-width:0.535313;stroke-opacity:0"
         id="rect854-9"
         width="52.916668"
         height="21.166668"
         x="41.27499"
         y="54.881195" />
    </g>
  </g>
</svg>
